<svg width="114" height="32" viewBox="0 0 114 32" fill="none" xmlns="http://www.w3.org/2000/svg">
<path d="M4.49604 7.01141C6.07973 5.36567 7.95428 5.15321 9.9689 5.52773C10.8844 5.6789 11.7085 6.17318 12.2744 6.91057C12.4503 7.13384 12.5294 7.14826 12.7448 6.94659C14.6804 5.1208 16.9464 4.99115 19.3094 5.83742C20.8679 6.39561 21.6544 7.638 21.6831 9.29814C21.7262 11.5741 21.6831 13.8536 21.7046 16.1404C21.7046 16.4645 21.6149 16.5653 21.2845 16.5617C20.0204 16.5617 18.7707 16.5401 17.4923 16.5617C17.1008 16.5617 17.0183 16.4357 17.0183 16.0719C17.0183 14.1777 17.0183 12.2835 17.0183 10.3857C17.0183 9.06768 16.4688 8.41946 15.3376 8.40146C15.0649 8.38543 14.7917 8.4246 14.5344 8.51663C14.2771 8.60866 14.0409 8.75167 13.8399 8.93715C13.6388 9.12263 13.4771 9.34678 13.3642 9.59626C13.2513 9.84573 13.1897 10.1154 13.1829 10.3893C13.1542 12.1323 13.1829 13.8716 13.1829 15.6146C13.1829 16.5509 13.1829 16.5509 12.2528 16.5509C11.1755 16.5509 10.0695 16.5509 8.98134 16.5509C8.58991 16.5509 8.5037 16.4285 8.50729 16.0648C8.52525 14.1489 8.50729 12.2367 8.50729 10.3209C8.50729 9.15411 7.91834 8.43746 6.93079 8.39064C5.72417 8.33302 4.72226 9.13609 4.69712 10.2849C4.65044 12.1611 4.66121 14.0373 4.69712 15.9135C4.69712 16.3996 4.61813 16.5761 4.07946 16.5545C2.87644 16.5077 1.66621 16.5293 0.463183 16.5545C0.104071 16.5545 0.0107422 16.4645 0.0107422 16.108C0.0251067 12.7781 0.0251067 9.447 0.0107422 6.11472C0.0107422 5.7546 0.107662 5.65377 0.463183 5.66097C1.57284 5.68258 2.68609 5.70418 3.79575 5.66097C4.31646 5.63576 4.47087 5.82662 4.46369 6.29118C4.43496 6.49284 4.4745 6.70171 4.49604 7.01141Z" fill="white"/>
<path d="M36.5574 22.0104C38.2057 20.3683 40.1126 20.1018 42.1918 20.5699C43.0231 20.7468 43.7693 21.2028 44.307 21.8628C44.4937 22.0896 44.5871 22.1725 44.8565 21.9168C45.7757 21.1052 46.9125 20.5824 48.1256 20.4134C49.3386 20.2444 50.5745 20.4366 51.6796 20.9661C52.3001 21.2565 52.8242 21.72 53.1891 22.3011C53.554 22.8822 53.7443 23.5564 53.7373 24.2431C53.7768 26.5407 53.7373 28.8382 53.7552 31.1358C53.7552 31.4959 53.6295 31.5463 53.3207 31.5427C52.0782 31.5427 50.8321 31.5427 49.5859 31.5427C49.1837 31.5427 49.0688 31.4311 49.0724 31.0277C49.094 29.1335 49.0724 27.2393 49.0724 25.3415C49.0724 24.0667 48.523 23.4329 47.4061 23.4149C46.1888 23.3933 45.2515 24.2071 45.2515 25.3739C45.2251 27.2297 45.2251 29.0867 45.2515 30.9449C45.2515 31.4239 45.1258 31.5607 44.6517 31.5463C43.4846 31.5139 42.3139 31.5103 41.1468 31.5463C40.6512 31.5643 40.5543 31.3951 40.5615 30.9341C40.5866 29.0759 40.5615 27.2177 40.5615 25.3631C40.5615 24.1387 39.9869 23.4437 38.9526 23.4149C37.7209 23.3825 36.7692 24.1783 36.7477 25.3343C36.7166 27.1709 36.7166 29.0087 36.7477 30.8477C36.7477 31.3843 36.6471 31.5679 36.069 31.5499C34.8839 31.5031 33.6953 31.5247 32.5066 31.5499C32.1475 31.5499 32.0541 31.4455 32.0577 31.0962C32.0577 27.7663 32.0577 24.434 32.0577 21.0993C32.0577 20.768 32.1618 20.6852 32.4814 20.6888C33.6091 20.6888 34.7403 20.7176 35.8715 20.6888C36.3276 20.6888 36.5538 20.7824 36.5107 21.2722C36.5127 21.5189 36.5283 21.7654 36.5574 22.0104V22.0104Z" fill="white"/>
<path d="M101.302 31.539C99.4095 31.539 97.6499 31.539 95.8902 31.539C95.6029 31.539 95.4951 31.3445 95.3587 31.1789C94.4717 30.0301 93.5632 28.885 92.7049 27.7218C92.4679 27.4049 92.3458 27.4157 91.9867 27.6245C91.739 27.7584 91.5388 27.9662 91.414 28.2191C91.2892 28.472 91.2459 28.7575 91.29 29.0362C91.3474 29.7204 91.29 30.4154 91.29 31.1033C91.29 31.4634 91.1822 31.557 90.8339 31.5534C89.6093 31.5534 88.3812 31.5282 87.1566 31.5534C86.7328 31.5534 86.6107 31.4598 86.6143 31.0204C86.6359 28.2439 86.6143 25.471 86.6143 22.6945C86.6143 20.8219 86.6143 18.9457 86.6143 17.0695C86.6143 16.6734 86.7041 16.551 87.1135 16.5582C88.3381 16.587 89.5662 16.5906 90.7908 16.5582C91.211 16.5582 91.2936 16.6986 91.2864 17.0839C91.2576 19.2446 91.2505 21.4053 91.2361 23.566V24.2863C92.1411 23.458 93.0317 22.7486 93.8002 21.9131C94.2006 21.446 94.7118 21.0875 95.2866 20.8704C95.8614 20.6532 96.4814 20.5846 97.0896 20.6707C98.2783 20.7751 99.4813 20.6923 100.821 20.6923L97.1004 23.7713C96.6874 24.1098 96.2888 24.4915 95.8543 24.7868C95.5598 24.9993 95.567 25.1469 95.804 25.399C97.5206 27.304 99.2192 29.2235 100.921 31.1429C101.036 31.2365 101.122 31.3337 101.302 31.539Z" fill="white"/>
<path d="M75.9522 22.0283C77.9668 20.1197 80.2615 19.9828 82.7106 20.948C83.3702 21.1737 83.9412 21.6036 84.3414 22.1757C84.7415 22.7479 84.9502 23.4327 84.9372 24.1314C84.9767 26.4866 84.9371 28.8381 84.9659 31.1933C84.9659 31.4706 84.8761 31.5534 84.6068 31.5534C83.3068 31.5534 82.0032 31.5534 80.7032 31.5534C80.3226 31.5534 80.3441 31.3734 80.3441 31.0961C80.3441 29.2595 80.3441 27.4229 80.3441 25.5863C80.3441 24.1782 79.7623 23.5336 78.4803 23.5228C77.0977 23.5228 76.103 24.3475 76.085 25.6043C76.0599 27.4049 76.0635 29.2054 76.085 31.006C76.085 31.4166 76.006 31.5714 75.5572 31.5606C74.3326 31.5282 73.1044 31.5354 71.8799 31.5606C71.4992 31.5606 71.395 31.4562 71.395 31.078C71.4094 27.765 71.4094 24.4531 71.395 21.1424C71.395 20.7823 71.4992 20.6923 71.8475 20.6995C72.9787 20.6995 74.1099 20.7319 75.2375 20.6995C75.7044 20.6815 75.8301 20.8615 75.848 21.2721C75.8143 21.5289 75.8503 21.7902 75.9522 22.0283V22.0283Z" fill="white"/>
<path d="M113.899 27.4589C113.899 27.8514 113.899 28.2476 113.899 28.6401C113.838 29.1761 113.638 29.6868 113.32 30.1214C113.001 30.556 112.574 30.8995 112.082 31.1177C111.169 31.5639 110.177 31.8246 109.163 31.8848C107.252 32.0468 105.338 32.0936 103.481 31.4778C102.12 31.0277 101.097 30.2066 100.727 28.7409C100.644 28.4204 100.623 28.2584 101.05 28.2584C102.217 28.2584 103.385 28.208 104.552 28.1647C104.857 28.1647 105.076 28.1647 105.198 28.5249C105.269 28.7254 105.391 28.9036 105.552 29.0414C105.714 29.1793 105.909 29.2719 106.117 29.3099C106.976 29.5133 107.87 29.5207 108.732 29.3315C109.206 29.2307 109.629 29.029 109.629 28.4564C109.629 27.8838 109.141 27.6966 108.696 27.6282C107.791 27.4913 106.871 27.4265 105.959 27.3401C104.89 27.2811 103.836 27.0513 102.839 26.6595C100.601 25.6763 100.289 22.9214 102.25 21.4522C103.116 20.8456 104.13 20.4837 105.184 20.4042C106.981 20.13 108.815 20.2318 110.57 20.7031C111.885 21.0992 112.969 21.7835 113.418 23.2059C113.515 23.5192 113.555 23.6777 113.116 23.6777C111.967 23.6777 110.818 23.7281 109.673 23.7677C109.41 23.7677 109.206 23.7677 109.098 23.4544C109.04 23.3003 108.943 23.1638 108.818 23.0578C108.692 22.9519 108.541 22.8801 108.38 22.8494C107.511 22.5974 106.588 22.5974 105.719 22.8494C105.378 22.9502 105.08 23.1195 105.101 23.5696C105.123 24.0198 105.439 24.153 105.78 24.2323C106.834 24.4223 107.899 24.5426 108.969 24.5924C110.04 24.6518 111.093 24.8954 112.082 25.3126C113.03 25.7484 113.738 26.3822 113.899 27.4589Z" fill="white"/>
<path d="M60.2337 11.1168C60.2337 12.7625 60.2337 14.4047 60.2337 16.0504C60.2337 16.4501 60.1332 16.5654 59.7274 16.5582C58.5064 16.5294 57.2782 16.5366 56.0537 16.5582C55.7269 16.5582 55.5868 16.5114 55.5904 16.1296C55.6048 12.7829 55.6048 9.43626 55.5904 6.08957C55.5904 5.76907 55.6694 5.66104 56.0034 5.66464C57.2675 5.68624 58.5172 5.68624 59.792 5.66464C60.1512 5.66464 60.2301 5.79427 60.2266 6.12918C60.2266 7.78932 60.2337 9.45305 60.2337 11.1168Z" fill="white"/>
<path d="M28.0431 31.8343C27.7175 31.8436 27.3933 31.7865 27.0904 31.6665C26.7874 31.5465 26.5119 31.366 26.2805 31.136C26.0492 30.9061 25.8668 30.6313 25.7445 30.3286C25.6221 30.0258 25.5624 29.7013 25.5688 29.3747C25.5771 28.7259 25.8371 28.1058 26.2937 27.646C26.7502 27.1861 27.3674 26.9227 28.0144 26.9115C28.6685 26.9203 29.2942 27.1809 29.7621 27.6394C30.23 28.0978 30.5043 28.7191 30.5282 29.3747C30.5225 30.0309 30.2578 30.6581 29.7921 31.119C29.3263 31.58 28.6975 31.8372 28.0431 31.8343V31.8343Z" fill="white"/>
<path d="M57.5829 0.00366211H58.276C59.5545 0.316964 60.2152 1.0444 60.2475 2.18597C60.2974 2.765 60.1213 3.34084 59.7562 3.79223C59.3911 4.24363 58.8656 4.53536 58.2904 4.60597C57.7037 4.70429 57.1018 4.57253 56.6094 4.23798C56.117 3.90344 55.7718 3.39174 55.6453 2.80892C55.5188 2.22611 55.6207 1.61684 55.93 1.10733C56.2392 0.59783 56.732 0.227145 57.3064 0.0720852C57.3818 0.0432759 57.4752 0.0252691 57.5829 0.00366211Z" fill="white"/>
<path d="M53.8453 1.96991C53.8453 1.6314 53.7232 1.55577 53.4108 1.55937C52.2042 1.55937 50.9976 1.59538 49.791 1.55937C49.2631 1.54136 49.1661 1.71423 49.1769 2.20039C49.2092 3.66606 49.1769 5.13174 49.1769 6.70185C47.8338 5.55668 46.3327 5.26138 44.7239 5.30459C42.1095 5.35861 39.1433 6.92872 38.8776 10.728C38.7052 13.2164 39.8723 15.5391 42.0521 16.3854C44.6449 17.3901 47.173 17.3829 49.439 15.2798C49.4803 15.5178 49.5044 15.7585 49.5108 16C49.4821 16.4142 49.6114 16.5654 50.0567 16.551C51.1664 16.5186 52.2796 16.551 53.3892 16.551C53.6873 16.551 53.8382 16.5042 53.8346 16.1549C53.8346 11.4254 53.8381 6.69704 53.8453 1.96991ZM46.3901 13.8033C44.5946 13.8033 43.5855 12.8346 43.5675 11.0845C43.5496 9.3343 44.5982 8.26834 46.3686 8.26114C48.2037 8.26114 49.2918 9.28027 49.299 11.0268C49.3062 12.7734 48.2468 13.8033 46.3901 13.8033Z" fill="white"/>
<path d="M75.5069 13.6089C75.5069 12.2116 75.5069 10.8143 75.5069 9.41709C75.5069 7.5769 74.6846 6.46774 72.9429 5.84114C72.1467 5.56716 71.3164 5.40595 70.4758 5.36217C68.5402 5.23253 66.6117 5.22894 64.7515 5.88435C64.1187 6.07805 63.5504 6.44082 63.1076 6.93375C62.6647 7.42668 62.364 8.0312 62.2377 8.68246C62.1551 9.04258 62.2377 9.14701 62.5968 9.15422C63.8035 9.19023 65.0065 9.24424 66.2131 9.30185C66.486 9.30185 66.6261 9.26224 66.662 8.94174C66.6876 8.7309 66.7628 8.5292 66.8815 8.35325C67.0001 8.1773 67.1587 8.03216 67.3443 7.92981C67.755 7.71985 68.2123 7.61822 68.673 7.63451C69.2082 7.58426 69.7475 7.6633 70.2459 7.86499C70.4762 7.98596 70.6623 8.17687 70.7778 8.41038C70.8932 8.64388 70.9321 8.90802 70.8888 9.16501C70.8241 9.67277 70.4075 9.66557 70.0664 9.70879C69.1399 9.82763 68.2062 9.90686 67.2725 10.0077C66.0228 10.1409 64.7587 10.1985 63.5665 10.6703C62.7944 10.9728 62.13 11.3905 61.8283 12.2224C61.2466 13.8753 61.5303 16.072 63.9363 16.6518C66.4501 17.2532 68.8992 17.2064 71.1185 15.6003C71.1832 15.802 71.255 16 71.3053 16.2017C71.3106 16.2528 71.3261 16.3022 71.3508 16.3472C71.3754 16.3922 71.4088 16.4318 71.4489 16.4637C71.4891 16.4956 71.5352 16.5191 71.5845 16.5328C71.6339 16.5466 71.6855 16.5503 71.7363 16.5438C73.1332 16.5438 74.5301 16.5438 76.0025 16.5438C75.64 15.6095 75.4714 14.6108 75.5069 13.6089V13.6089ZM69.8294 14.023C69.1947 14.3396 68.4949 14.5024 67.786 14.4983C67.4794 14.5093 67.173 14.4729 66.8775 14.3903C66.661 14.3408 66.4667 14.2212 66.3246 14.0501C66.1825 13.8789 66.1004 13.6657 66.091 13.4432C66.0553 13.2133 66.0975 12.9781 66.2108 12.7751C66.3241 12.5721 66.5019 12.413 66.7159 12.3232C67.4341 11.9883 68.2026 11.9955 68.9531 11.8767C69.5385 11.7831 70.131 11.747 70.7163 11.657C70.957 11.6174 71.0001 11.6858 71.0144 11.9091C71.0614 12.3414 70.9724 12.7775 70.7599 13.1566C70.5474 13.5356 70.222 13.8385 69.8294 14.023Z" fill="white"/>
<path d="M66.6083 21.1461C65.3187 20.5654 63.9126 20.2918 62.5001 20.3466C61.9189 20.3264 61.3373 20.3699 60.7656 20.4763C59.8005 20.6269 58.8687 20.9437 58.0112 21.4125C56.1617 22.4713 55.1095 24.0234 55.1383 26.2129C55.167 28.4024 56.2156 29.9509 58.1045 30.8944C59.441 31.5965 60.9228 31.9748 62.4314 31.9992C63.9399 32.0236 65.4331 31.6933 66.7915 31.0349C68.8456 30.095 70.0773 28.4708 70.0594 26.1301C70.0199 23.7281 68.7163 22.1328 66.6083 21.1461ZM62.5467 28.9066C62.1839 28.9076 61.8245 28.8362 61.4893 28.6968C61.1542 28.5573 60.85 28.3525 60.5944 28.0942C60.3388 27.8359 60.1369 27.5293 60.0005 27.1921C59.864 26.8549 59.7958 26.4939 59.7996 26.1301C59.8024 25.3942 60.0949 24.6893 60.6134 24.1687C61.1319 23.648 61.8345 23.3538 62.5683 23.35C63.3102 23.364 64.0174 23.6675 64.5398 24.196C65.0621 24.7245 65.3585 25.4364 65.3658 26.1805C65.3452 26.9144 65.0383 27.611 64.5113 28.1207C63.9842 28.6304 63.2789 28.9125 62.5467 28.9066V28.9066Z" fill="white"/>
<path d="M28.2117 12.0856C31.2138 12.0856 34.2196 12.0856 37.2254 12.0856C37.6168 12.0856 37.7425 12.0027 37.7389 11.5886C37.7389 9.23343 36.737 7.41485 34.6434 6.3561C33.2925 5.63948 31.7859 5.26907 30.2577 5.27786C28.7295 5.28666 27.2272 5.6744 25.8846 6.40653C24.9663 6.83548 24.1997 7.53432 23.6866 8.41031C23.1735 9.28631 22.9381 10.2981 23.0117 11.3113C23.0836 13.472 24.1968 15.0097 26.1145 15.9712C27.91 16.8643 29.8133 17.0228 31.7633 16.8571C33.106 16.7788 34.4048 16.3493 35.5304 15.6111C36.3595 15.0697 37.0037 14.2868 37.3762 13.3676L33.426 13.1371C33.347 13.1371 33.2716 13.1371 33.1961 13.1371C33.1116 13.1209 33.0241 13.1333 32.9474 13.1724C32.8707 13.2115 32.8091 13.2751 32.7724 13.3532C31.9572 14.5992 29.386 14.4839 28.4631 13.7133C28.1558 13.4535 27.9187 13.1204 27.7736 12.7446C27.5653 12.1216 27.5868 12.0856 28.2117 12.0856ZM27.7377 9.56474C27.8209 9.27935 27.9643 9.01525 28.1583 8.79032C28.3522 8.5654 28.5921 8.38492 28.8617 8.26112C29.341 8.04108 29.8634 7.9317 30.3905 7.94105C30.9175 7.95039 31.4357 8.07824 31.9069 8.31514C32.2004 8.46756 32.448 8.69578 32.6242 8.97623C32.8003 9.25668 32.8986 9.57918 32.9089 9.91046C31.239 9.91046 29.6015 9.91046 27.9603 9.91046C27.6551 9.90686 27.6587 9.77722 27.7377 9.55395V9.56474Z" fill="white"/>
</svg>
