<svg width="73" height="21" viewBox="0 0 73 21" fill="none" xmlns="http://www.w3.org/2000/svg">
<path d="M2.84949 4.452C3.85559 3.40648 5.04649 3.2715 6.32636 3.50943C6.90799 3.60547 7.43151 3.91948 7.79101 4.38794C7.9028 4.52978 7.953 4.53894 8.08989 4.41082C9.31957 3.25091 10.7592 3.16854 12.2603 3.70618C13.2505 4.06078 13.7501 4.85007 13.7683 5.90475C13.7957 7.35064 13.7683 8.79882 13.782 10.2516C13.782 10.4575 13.725 10.5215 13.5151 10.5192C12.712 10.5192 11.9181 10.5055 11.1059 10.5192C10.8572 10.5192 10.8048 10.4392 10.8048 10.2081C10.8048 9.00472 10.8048 7.80134 10.8048 6.59567C10.8048 5.75833 10.4557 5.34653 9.73706 5.33509C9.56381 5.32491 9.39028 5.34979 9.22681 5.40826C9.06334 5.46673 8.91329 5.55758 8.78556 5.67541C8.65784 5.79324 8.55507 5.93565 8.48337 6.09414C8.41167 6.25263 8.37251 6.42398 8.36822 6.59796C8.34996 7.70526 8.36822 8.81027 8.36822 9.91756C8.36822 10.5124 8.36822 10.5124 7.77734 10.5124C7.09291 10.5124 6.39024 10.5124 5.69897 10.5124C5.4503 10.5124 5.39553 10.4346 5.39781 10.2035C5.40922 8.98643 5.39781 7.7716 5.39781 6.55449C5.39781 5.81324 5.02365 5.35796 4.39626 5.32822C3.62971 5.29161 2.9932 5.8018 2.97723 6.5316C2.94757 7.72355 2.95442 8.9155 2.97723 10.1074C2.97723 10.4163 2.92705 10.5284 2.58483 10.5147C1.82056 10.4849 1.05171 10.4987 0.287433 10.5147C0.0592912 10.5147 0 10.4575 0 10.231C0.00912566 8.11554 0.00912566 5.99932 0 3.88234C0 3.65356 0.0615726 3.5895 0.287433 3.59408C0.99239 3.6078 1.69964 3.62153 2.40459 3.59408C2.7354 3.57806 2.8335 3.69931 2.82893 3.99444C2.81068 4.12256 2.8358 4.25525 2.84949 4.452Z" fill="black"/>
<path d="M23.2175 13.9808C24.2647 12.9376 25.4762 12.7683 26.7971 13.0657C27.3252 13.178 27.7993 13.4678 28.1409 13.887C28.2595 14.0311 28.3188 14.0838 28.4899 13.9213C29.0739 13.4057 29.7961 13.0736 30.5668 12.9662C31.3374 12.8588 32.1226 12.9809 32.8246 13.3173C33.2188 13.5018 33.5518 13.7963 33.7836 14.1655C34.0154 14.5347 34.1363 14.963 34.1319 15.3992C34.1569 16.8589 34.1318 18.3185 34.1432 19.7781C34.1432 20.0069 34.0634 20.0389 33.8672 20.0366C33.0778 20.0366 32.2862 20.0366 31.4945 20.0366C31.239 20.0366 31.166 19.9657 31.1683 19.7095C31.182 18.5061 31.1683 17.3027 31.1683 16.097C31.1683 15.2871 30.8192 14.8845 30.1097 14.873C29.3363 14.8593 28.7409 15.3764 28.7409 16.1176C28.7241 17.2966 28.7241 18.4763 28.7409 19.6568C28.7409 19.9611 28.661 20.0481 28.3599 20.0389C27.6184 20.0183 26.8747 20.016 26.1332 20.0389C25.8184 20.0503 25.7568 19.9428 25.7613 19.65C25.7773 18.4695 25.7613 17.289 25.7613 16.1107C25.7613 15.3329 25.3963 14.8913 24.7393 14.873C23.9567 14.8525 23.3522 15.3581 23.3385 16.0924C23.3187 17.2592 23.3187 18.4268 23.3385 19.5951C23.3385 19.936 23.2746 20.0526 22.9073 20.0412C22.1544 20.0115 21.3993 20.0252 20.6441 20.0412C20.416 20.0412 20.3567 19.9748 20.3589 19.7529C20.3589 17.6375 20.3589 15.5205 20.3589 13.402C20.3589 13.1915 20.4251 13.1389 20.6281 13.1412C21.3445 13.1412 22.0632 13.1595 22.7818 13.1412C23.0716 13.1412 23.2153 13.2007 23.1879 13.5118C23.1892 13.6686 23.1991 13.8251 23.2175 13.9808V13.9808Z" fill="black"/>
<path d="M64.3496 20.0343C63.1473 20.0343 62.0294 20.0343 60.9115 20.0343C60.729 20.0343 60.6605 19.9107 60.5738 19.8055C60.0103 19.0757 59.4332 18.3482 58.8879 17.6092C58.7373 17.4079 58.6598 17.4148 58.4316 17.5474C58.2742 17.6325 58.1471 17.7645 58.0678 17.9251C57.9885 18.0858 57.961 18.2672 57.989 18.4443C58.0255 18.8789 57.989 19.3205 57.989 19.7575C57.989 19.9862 57.9206 20.0457 57.6993 20.0434C56.9213 20.0434 56.1411 20.0274 55.3631 20.0434C55.0939 20.0434 55.0163 19.9839 55.0186 19.7048C55.0323 17.9409 55.0186 16.1793 55.0186 14.4154C55.0186 13.2258 55.0186 12.0338 55.0186 10.8419C55.0186 10.5902 55.0756 10.5125 55.3357 10.517C56.1137 10.5353 56.8939 10.5376 57.6719 10.517C57.9388 10.517 57.9913 10.6062 57.9867 10.851C57.9685 12.2237 57.9639 13.5964 57.9548 14.9691V15.4266C58.5297 14.9005 59.0955 14.4498 59.5837 13.919C59.8381 13.6223 60.1628 13.3945 60.528 13.2565C60.8932 13.1186 61.2871 13.075 61.6735 13.1297C62.4286 13.196 63.1929 13.1434 64.0439 13.1434L61.6803 15.0995C61.418 15.3145 61.1647 15.5571 60.8887 15.7447C60.7016 15.8796 60.7062 15.9734 60.8568 16.1336C61.9473 17.3438 63.0264 18.5632 64.1078 19.7826C64.1808 19.8421 64.2355 19.9039 64.3496 20.0343Z" fill="black"/>
<path d="M48.2452 13.9921C49.5251 12.7796 50.9829 12.6927 52.5388 13.3058C52.9578 13.4492 53.3206 13.7223 53.5748 14.0858C53.8291 14.4493 53.9616 14.8843 53.9533 15.3282C53.9784 16.8244 53.9533 18.3184 53.9716 19.8146C53.9716 19.9907 53.9145 20.0434 53.7434 20.0434C52.9176 20.0434 52.0894 20.0434 51.2635 20.0434C51.0217 20.0434 51.0354 19.929 51.0354 19.7528C51.0354 18.586 51.0354 17.4193 51.0354 16.2525C51.0354 15.3579 50.6658 14.9484 49.8513 14.9416C48.973 14.9416 48.341 15.4655 48.3296 16.2639C48.3137 17.4078 48.316 18.5517 48.3296 19.6956C48.3296 19.9564 48.2795 20.0548 47.9943 20.0479C47.2163 20.0274 46.4361 20.0319 45.6581 20.0479C45.4163 20.0479 45.3501 19.9816 45.3501 19.7414C45.3592 17.6366 45.3592 15.5326 45.3501 13.4293C45.3501 13.2005 45.4163 13.1434 45.6376 13.1479C46.3562 13.1479 47.0749 13.1685 47.7912 13.1479C48.0878 13.1365 48.1677 13.2509 48.1791 13.5117C48.1576 13.6749 48.1805 13.8409 48.2452 13.9921V13.9921Z" fill="black"/>
<path d="M72.3528 17.4422C72.3528 17.6915 72.3528 17.9432 72.3528 18.1926C72.3139 18.5331 72.187 18.8575 71.9844 19.1336C71.7819 19.4097 71.511 19.6279 71.1984 19.7666C70.6182 20.0501 69.9878 20.2157 69.3436 20.2539C68.1299 20.3568 66.9139 20.3866 65.7344 19.9954C64.8697 19.7094 64.2195 19.1878 63.9845 18.2566C63.9321 18.053 63.9184 17.9501 64.1899 17.9501C64.9313 17.9501 65.6728 17.918 66.4142 17.8906C66.6082 17.8906 66.7473 17.8906 66.8249 18.1194C66.8698 18.2467 66.9474 18.3599 67.05 18.4475C67.1526 18.5351 67.2764 18.594 67.4089 18.6181C67.9546 18.7473 68.5221 18.752 69.0698 18.6318C69.371 18.5678 69.6402 18.4396 69.6402 18.0759C69.6402 17.7121 69.3299 17.5932 69.047 17.5497C68.4721 17.4628 67.888 17.4216 67.3085 17.3667C66.629 17.3292 65.9597 17.1832 65.326 16.9343C63.9047 16.3097 63.7062 14.5595 64.9518 13.6261C65.5025 13.2408 66.1462 13.0109 66.8158 12.9604C67.9573 12.7862 69.1225 12.8508 70.2379 13.1502C71.0729 13.4019 71.7619 13.8366 72.0471 14.7403C72.1086 14.9393 72.1338 15.04 71.8554 15.04C71.1254 15.04 70.3953 15.072 69.6675 15.0972C69.501 15.0972 69.3709 15.0972 69.3025 14.8981C69.2656 14.8002 69.2043 14.7135 69.1244 14.6462C69.0445 14.5789 68.9487 14.5333 68.8462 14.5138C68.294 14.3537 67.7079 14.3537 67.1557 14.5138C66.939 14.5778 66.7496 14.6854 66.7633 14.9713C66.777 15.2573 66.9777 15.342 67.1945 15.3923C67.864 15.513 68.5408 15.5894 69.2204 15.6211C69.901 15.6588 70.5701 15.8136 71.1984 16.0786C71.8007 16.3555 72.2501 16.7581 72.3528 17.4422Z" fill="black"/>
<path d="M38.259 7.06009C38.259 8.10561 38.259 9.14886 38.259 10.1944C38.259 10.4483 38.1951 10.5215 37.9373 10.517C37.1616 10.4987 36.3814 10.5032 35.6034 10.517C35.3958 10.517 35.3068 10.4872 35.3091 10.2447C35.3183 8.11859 35.3183 5.99246 35.3091 3.86633C35.3091 3.66271 35.3593 3.59408 35.5715 3.59637C36.3746 3.6101 37.1685 3.6101 37.9784 3.59637C38.2065 3.59637 38.2567 3.67872 38.2544 3.89149C38.2544 4.94617 38.259 6.00313 38.259 7.06009Z" fill="black"/>
<path d="M17.8085 20.2219C17.6017 20.2278 17.3957 20.1916 17.2032 20.1153C17.0108 20.0391 16.8357 19.9244 16.6888 19.7783C16.5418 19.6322 16.4259 19.4577 16.3482 19.2653C16.2705 19.073 16.2325 18.8668 16.2366 18.6593C16.2419 18.2471 16.4071 17.8532 16.6971 17.5611C16.9872 17.2689 17.3793 17.1016 17.7903 17.0945C18.2058 17.1001 18.6034 17.2656 18.9006 17.5569C19.1979 17.8482 19.3721 18.2428 19.3873 18.6593C19.3837 19.0762 19.2155 19.4747 18.9196 19.7675C18.6237 20.0603 18.2242 20.2237 17.8085 20.2219V20.2219Z" fill="black"/>
<path d="M36.5757 0H37.016C37.8282 0.199039 38.248 0.661174 38.2685 1.38641C38.3002 1.75426 38.1883 2.12009 37.9564 2.40686C37.7244 2.69362 37.3906 2.87896 37.0251 2.92382C36.6524 2.98628 36.27 2.90257 35.9572 2.69004C35.6444 2.4775 35.4251 2.15243 35.3447 1.78217C35.2643 1.41191 35.3291 1.02484 35.5256 0.701156C35.722 0.377471 36.0351 0.141977 36.4 0.0434688C36.4479 0.0251664 36.5072 0.0137268 36.5757 0Z" fill="black"/>
<path d="M34.2007 1.24916C34.2007 1.03411 34.1231 0.986062 33.9247 0.98835C33.1581 0.98835 32.3916 1.01123 31.625 0.98835C31.2896 0.976911 31.228 1.08673 31.2349 1.39559C31.2554 2.32672 31.2349 3.25786 31.2349 4.25534C30.3816 3.52782 29.428 3.34022 28.4059 3.36767C26.745 3.40199 24.8606 4.39947 24.6918 6.8131C24.5823 8.39397 25.3237 9.86959 26.7085 10.4072C28.3557 11.0455 29.9618 11.0409 31.4014 9.70487C31.4277 9.85608 31.4429 10.009 31.447 10.1624C31.4288 10.4255 31.5109 10.5216 31.7938 10.5125C32.4988 10.4919 33.206 10.5125 33.911 10.5125C34.1003 10.5125 34.1962 10.4827 34.1939 10.2608C34.1939 7.25617 34.1961 4.25228 34.2007 1.24916ZM29.4645 8.76688C28.3238 8.76688 27.6827 8.15146 27.6713 7.03959C27.6599 5.92772 28.3261 5.25052 29.4508 5.24595C30.6166 5.24595 31.3079 5.89339 31.3124 7.00298C31.317 8.11256 30.644 8.76688 29.4645 8.76688Z" fill="black"/>
<path d="M47.9624 8.64333C47.9624 7.75567 47.9624 6.868 47.9624 5.98033C47.9624 4.81126 47.44 4.10662 46.3335 3.70854C45.8277 3.53449 45.3002 3.43207 44.7662 3.40426C43.5365 3.3219 42.3113 3.31962 41.1296 3.736C40.7276 3.85905 40.3665 4.08952 40.0852 4.40268C39.8039 4.71583 39.6128 5.09988 39.5326 5.51362C39.4801 5.7424 39.5326 5.80875 39.7607 5.81332C40.5273 5.8362 41.2916 5.87051 42.0581 5.90712C42.2315 5.90712 42.3205 5.88195 42.3433 5.67834C42.3596 5.5444 42.4073 5.41625 42.4827 5.30448C42.5581 5.1927 42.6589 5.10049 42.7768 5.03547C43.0377 4.90208 43.3282 4.83751 43.6209 4.84787C43.9609 4.81594 44.3035 4.86615 44.6201 4.99429C44.7664 5.07114 44.8847 5.19242 44.958 5.34077C45.0314 5.48911 45.0561 5.65692 45.0285 5.82018C44.9875 6.14276 44.7228 6.13819 44.5061 6.16564C43.9175 6.24114 43.3243 6.29147 42.7311 6.35553C41.9372 6.44018 41.1342 6.47678 40.3767 6.77648C39.8862 6.96866 39.4641 7.23404 39.2725 7.76252C38.9029 8.81262 39.0831 10.2082 40.6117 10.5765C42.2087 10.9586 43.7646 10.9288 45.1745 9.90848C45.2156 10.0366 45.2612 10.1624 45.2932 10.2905C45.2965 10.323 45.3064 10.3544 45.322 10.383C45.3377 10.4116 45.3589 10.4368 45.3844 10.457C45.4099 10.4772 45.4392 10.4922 45.4706 10.5009C45.5019 10.5097 45.5347 10.512 45.5669 10.5079C46.4544 10.5079 47.3419 10.5079 48.2773 10.5079C48.047 9.9143 47.9398 9.27986 47.9624 8.64333V8.64333ZM44.3555 8.90642C43.9523 9.10758 43.5077 9.21102 43.0574 9.20841C42.8626 9.21539 42.6679 9.19224 42.4802 9.13978C42.3426 9.1083 42.2192 9.03235 42.1289 8.92363C42.0387 8.8149 41.9865 8.67944 41.9805 8.53809C41.9579 8.39207 41.9847 8.24265 42.0566 8.11368C42.1286 7.98471 42.2416 7.88364 42.3775 7.82659C42.8338 7.61382 43.322 7.6184 43.7988 7.5429C44.1707 7.48342 44.5471 7.46053 44.919 7.40334C45.0719 7.37817 45.0992 7.42164 45.1084 7.56348C45.1382 7.8381 45.0816 8.11521 44.9467 8.356C44.8117 8.5968 44.605 8.78925 44.3555 8.90642Z" fill="black"/>
<path d="M42.3092 13.4317C41.4899 13.0628 40.5966 12.889 39.6992 12.9238C39.33 12.911 38.9605 12.9386 38.5973 13.0062C37.9842 13.1019 37.3922 13.3031 36.8475 13.601C35.6725 14.2736 35.0041 15.2597 35.0223 16.6506C35.0406 18.0416 35.7068 19.0254 36.9068 19.6248C37.7558 20.0708 38.6972 20.3112 39.6556 20.3267C40.614 20.3421 41.5626 20.1323 42.4255 19.714C43.7305 19.1169 44.513 18.0851 44.5016 16.598C44.4765 15.072 43.6484 14.0586 42.3092 13.4317ZM39.7289 18.3619C39.4984 18.3625 39.27 18.3172 39.0571 18.2286C38.8442 18.14 38.6509 18.0099 38.4886 17.8458C38.3262 17.6817 38.198 17.4869 38.1113 17.2727C38.0246 17.0585 37.9812 16.8292 37.9836 16.598C37.9854 16.1305 38.1712 15.6827 38.5007 15.3519C38.8301 15.0212 39.2764 14.8342 39.7426 14.8318C40.2139 14.8407 40.6632 15.0335 40.9951 15.3693C41.3269 15.7051 41.5152 16.1573 41.5198 16.63C41.5067 17.0963 41.3118 17.5388 40.977 17.8626C40.6421 18.1864 40.194 18.3657 39.7289 18.3619V18.3619Z" fill="black"/>
<path d="M17.9159 7.67557C19.8231 7.67557 21.7327 7.67557 23.6423 7.67557C23.8909 7.67557 23.9708 7.62295 23.9685 7.35985C23.9685 5.86363 23.332 4.7083 22.0019 4.03568C21.1437 3.58042 20.1866 3.34509 19.2157 3.35068C18.2449 3.35627 17.2904 3.6026 16.4375 4.06772C15.8541 4.34023 15.3671 4.78419 15.0411 5.34071C14.7152 5.89723 14.5656 6.53999 14.6124 7.1837C14.658 8.55638 15.3653 9.53328 16.5835 10.1441C17.7242 10.7115 18.9334 10.8121 20.1722 10.7069C21.0252 10.6572 21.8503 10.3843 22.5654 9.91534C23.0922 9.57137 23.5014 9.074 23.7381 8.49003L21.2285 8.34362C21.1783 8.34362 21.1304 8.34362 21.0825 8.34362C21.0288 8.3333 20.9732 8.34119 20.9245 8.36605C20.8757 8.3909 20.8366 8.43129 20.8133 8.48088C20.2954 9.27246 18.6619 9.19925 18.0756 8.70966C17.8804 8.54462 17.7298 8.33298 17.6376 8.09424C17.5052 7.69845 17.5189 7.67557 17.9159 7.67557ZM17.6147 6.07411C17.6676 5.89281 17.7588 5.72502 17.882 5.58213C18.0052 5.43924 18.1576 5.32458 18.3288 5.24593C18.6333 5.10614 18.9652 5.03665 19.3 5.04259C19.6349 5.04853 19.9641 5.12975 20.2635 5.28025C20.4499 5.37708 20.6072 5.52207 20.7191 5.70023C20.831 5.8784 20.8935 6.08329 20.9 6.29374C19.8391 6.29374 18.7988 6.29374 17.7562 6.29374C17.5623 6.29146 17.5646 6.2091 17.6147 6.06725V6.07411Z" fill="black"/>
</svg>
