<svg width="62" height="18" viewBox="0 0 62 18" fill="none" xmlns="http://www.w3.org/2000/svg">
<path fill-rule="evenodd" clip-rule="evenodd" d="M7.77444 0.783347L0.303711 0.782861V2.47788L3.02662 2.47849V8.04028H5.04751L5.04689 2.47788L7.77444 2.47825V0.783347Z" fill="white"/>
<path fill-rule="evenodd" clip-rule="evenodd" d="M28.0942 13.0832C28.0942 12.4484 27.5604 11.9382 26.9047 11.9382H26.891H24.2757C24.0459 11.9382 23.9311 12.0495 23.8093 12.2262C23.8025 12.2325 23.0254 13.319 23.0254 13.319H25.5597C25.8572 13.3322 26.0937 13.5676 26.0937 13.8621V17.2587H28.0942V13.0962V13.0832Z" fill="#E51635"/>
<path fill-rule="evenodd" clip-rule="evenodd" d="M21.0249 10.0011H23.0254V17.2587H21.0249V10.0011Z" fill="#E51635"/>
<path fill-rule="evenodd" clip-rule="evenodd" d="M38.4073 11.9382H32.7236V17.2585H34.7375V13.319H37.0217C37.3329 13.319 37.5898 13.561 37.5898 13.8621V17.2585H39.5971V13.0832C39.5971 12.4484 39.063 11.9382 38.4073 11.9382Z" fill="#E51635"/>
<path fill-rule="evenodd" clip-rule="evenodd" d="M9.91409 10.0011H0.303711V17.2587H2.29739V11.696H4.43303C4.63581 11.696 4.79808 11.8597 4.79808 12.0561V17.2587H6.79854V12.0561C6.79854 11.8529 6.96758 11.696 7.17024 11.696H7.17701H8.74494C9.04905 11.696 9.2991 11.9316 9.2991 12.2262V17.2587H11.2929V11.336C11.2929 10.5966 10.6778 10.0011 9.91409 10.0011Z" fill="#E51635"/>
<path fill-rule="evenodd" clip-rule="evenodd" d="M29.4121 13.6658V17.2587H31.4127V14.0454V11.9973C31.4127 11.9973 30.4866 12.5534 29.8311 12.9526C29.5809 13.1095 29.4121 13.3714 29.4121 13.6658Z" fill="#E51635"/>
<path fill-rule="evenodd" clip-rule="evenodd" d="M29.4121 9.9947H31.4127V11.336L29.4121 12.6185V9.9947Z" fill="#E51635"/>
<path fill-rule="evenodd" clip-rule="evenodd" d="M50.2958 11.9382C49.7955 11.9382 49.4712 12.3112 49.4712 12.7104V17.2585H51.4851V13.8685C51.4851 13.5676 51.7081 13.3122 52.0259 13.3122H53.5195C53.7356 13.2995 53.9184 13.175 54.0331 13.0113C54.0398 13.0048 54.8169 11.9382 54.8169 11.9382H50.2958Z" fill="#E51635"/>
<path fill-rule="evenodd" clip-rule="evenodd" d="M46.1463 10.0011V11.9382V15.9302H43.2469C43.0442 15.9302 42.9021 15.7599 42.9021 15.616V13.8621H42.909C42.909 13.561 43.1589 13.319 43.47 13.319H44.9363C45.1526 13.319 45.3757 13.1947 45.4703 13.0508L46.1463 11.9382H42.078C41.4287 11.9382 40.895 12.4484 40.895 13.0832V13.0962V16.3031C40.895 16.9183 41.4018 17.2587 41.868 17.2587H48.1536V10.0011H46.1463Z" fill="#E51635"/>
<path fill-rule="evenodd" clip-rule="evenodd" d="M60.69 11.9382H56.0671C55.8373 11.9382 55.6282 12.0427 55.4996 12.2132L54.7224 13.319H59.3789C59.6694 13.332 59.906 13.5743 59.906 13.8621L59.8991 15.9758H56.4119V15.3672C56.4119 15.2496 56.5131 15.1512 56.6349 15.1512H59.0749V14.3661C59.0749 14.1763 58.9531 14.0714 58.7841 14.0714H55.4047C54.9859 14.0714 54.6548 14.392 54.6548 14.7914V16.722C54.6548 16.7349 54.6548 16.7417 54.6616 16.7549C54.7088 17.0424 54.9658 17.2585 55.2765 17.2585H61.8728V13.0832C61.8728 12.4484 61.3456 11.9382 60.69 11.9382Z" fill="#E51635"/>
<path fill-rule="evenodd" clip-rule="evenodd" d="M18.5986 11.9382H13.9758C13.7528 11.9382 13.5366 12.0427 13.415 12.2132L12.6308 13.319H17.2875C17.5782 13.332 17.8147 13.5743 17.8147 13.8621V15.9758H14.3205V15.3672C14.3205 15.2496 14.4218 15.1512 14.5435 15.1512H16.9832V14.3661C16.9832 14.1763 16.8617 14.0714 16.6927 14.0714H13.3134C12.8944 14.0714 12.5635 14.392 12.5635 14.7914V16.722C12.5635 16.7349 12.5635 16.7417 12.5701 16.7549C12.6174 17.0424 12.8741 17.2585 13.1851 17.2585H19.7814V13.0832C19.7814 12.4484 19.2543 11.9382 18.5986 11.9382Z" fill="#E51635"/>
<path fill-rule="evenodd" clip-rule="evenodd" d="M31.4129 3.95578C31.4129 3.32107 30.8788 2.81059 30.2234 2.81059H30.2097H27.5254C27.2954 2.81059 27.1805 2.92182 27.0589 3.09837C27.0523 3.10493 26.2749 4.19135 26.2749 4.19135H28.8783C29.1757 4.20459 29.4122 4.44016 29.4122 4.7345V8.13098H31.4129V3.9689V3.95578ZM24.2744 0.873561H26.2749V8.13098H24.2744V0.873561V0.873561Z" fill="white"/>
<path fill-rule="evenodd" clip-rule="evenodd" d="M18.7225 6.20707H18.7292C18.7292 6.50809 18.9805 6.75022 19.2931 6.75022L23.0307 6.74997V8.13098H17.8937C17.2417 8.13098 16.7051 7.6205 16.7051 6.98579V6.97267V3.04822V3.86507C16.7051 3.23037 17.2417 2.71976 17.8937 2.71976H23.0187L22.7033 3.47881C22.6366 3.63885 22.602 3.77485 22.4502 3.87819C22.3419 3.95214 22.2502 4.00362 22.1108 4.00362H19.2931C18.9805 4.00362 18.7292 4.24575 18.7292 4.5469H18.7225V6.20707Z" fill="white"/>
<path fill-rule="evenodd" clip-rule="evenodd" d="M9.74568 8.06433H14.0256C14.2486 8.06433 14.4648 7.95954 14.5865 7.78954L15.3706 6.68345H11.0568C10.7663 6.67045 10.5296 6.4282 10.5296 6.1403V4.02659H13.6809V4.63519C13.6809 4.75297 13.5795 4.85109 13.4578 4.85109H11.3611V5.63649C11.3611 5.82616 11.4828 5.93083 11.6517 5.93083H14.6879C15.1068 5.93083 15.438 5.61038 15.438 5.21112V3.28041C15.438 3.26742 15.438 3.26098 15.4313 3.24787C15.384 2.95984 15.1272 2.74394 14.8164 2.74394H9.29548H8.56299V3.42345V6.91902C8.56299 7.55385 9.09019 8.06433 9.74568 8.06433Z" fill="white"/>
</svg>
